<svg width="2041" height="300" viewBox="0 0 2041 300" fill="none" xmlns="http://www.w3.org/2000/svg">
<path fill-rule="evenodd" clip-rule="evenodd" d="M535.885 285.849C550.762 295.208 568.061 299.991 585.633 299.605C599.562 299.972 613.325 296.51 625.423 289.596C631.824 285.786 637.528 280.974 642.334 275.373V294.28H701.501V197.1C701.853 178.624 697.074 160.413 687.695 144.491C678.608 129.31 665.696 116.78 650.248 108.153C633.57 98.9778 614.772 94.3526 595.741 94.7422C576.862 94.464 558.259 99.2936 541.9 108.72C526.338 117.699 513.303 130.471 504.009 145.847C494.653 161.291 489.803 179.044 490.006 197.1C489.825 215.041 494.058 232.752 502.332 248.673C510.064 263.792 521.635 276.612 535.885 285.849ZM618.2 235.065C611.413 239.087 603.628 241.112 595.741 240.907C588.096 241.064 580.555 239.117 573.942 235.278C567.329 231.439 561.899 225.856 558.244 219.139C554.541 212.446 552.598 204.922 552.598 197.272C552.598 189.623 554.541 182.099 558.244 175.405C561.95 168.725 567.411 163.184 574.037 159.382C580.663 155.58 588.202 153.662 595.84 153.834C603.689 153.654 611.433 155.669 618.2 159.652C624.519 163.518 629.74 168.942 633.361 175.405C637.065 182.099 639.008 189.623 639.008 197.272C639.008 204.922 637.065 212.446 633.361 219.139C629.787 225.682 624.559 231.173 618.2 235.065Z" fill="#FB364E"/>
<path d="M1030.88 107.167C1016.63 98.0949 998.745 93.5588 977.215 93.5588C962.823 93.291 948.564 96.3537 935.552 102.508C923.846 108.059 913.842 116.649 906.585 127.382C905.269 129.392 904.064 131.464 902.974 133.589C901.978 131.471 900.872 129.399 899.658 127.382C892.835 116.569 883.057 107.936 871.48 102.508C857.844 96.2321 842.949 93.1705 827.944 93.5588C806.43 93.5588 788.541 98.0867 774.275 107.142C760.34 115.869 749.214 128.425 742.227 143.308C734.982 158.881 731.326 175.882 731.527 193.057V294.132H794.046V203.559C793.943 195.18 795.26 186.844 797.941 178.906C800.273 171.893 804.547 165.687 810.268 161.008C815.815 156.497 823.284 154.204 832.603 154.204C840.654 153.818 848.6 156.154 855.16 160.836C860.991 165.426 865.325 171.648 867.61 178.709C870.274 186.727 871.582 195.134 871.48 203.583V294.181H933.974V203.608C933.88 195.158 935.197 186.751 937.87 178.733C940.138 171.696 944.424 165.481 950.196 160.86C956.548 156.193 964.312 153.852 972.186 154.229C980.254 153.848 988.209 156.25 994.718 161.033C1000.49 165.687 1004.81 171.898 1007.17 178.931C1009.84 186.871 1011.15 195.206 1011.04 203.583V294.157H1073.61V193.081C1073.82 175.908 1070.17 158.907 1062.93 143.332C1055.94 128.454 1044.81 115.9 1030.88 107.167Z" fill="#FB364E"/>
<path fill-rule="evenodd" clip-rule="evenodd" d="M1154.73 286.589C1171.53 295.471 1190.31 299.95 1209.31 299.605C1228.18 299.909 1246.79 295.159 1263.2 285.849C1278.78 277.013 1291.79 264.267 1300.95 248.87C1310.16 233.427 1314.93 215.745 1314.75 197.765C1315.17 179.013 1310.74 160.469 1301.91 143.924C1293.64 128.78 1281.23 116.303 1266.14 107.956C1250.87 99.4099 1232.99 95.1368 1212.49 95.1368C1199.65 95.0965 1186.98 98.0865 1175.51 103.864C1172.29 105.427 1169.18 107.206 1166.22 109.186V11.9343H1103.63V197.765C1103.36 216.166 1108.06 234.299 1117.23 250.251C1126.12 265.608 1139.1 278.19 1154.73 286.589ZM1231.67 235.065C1224.91 239.069 1217.17 241.094 1209.31 240.907C1201.41 241.071 1193.61 239.05 1186.78 235.065C1180.4 231.285 1175.16 225.85 1171.62 219.336C1167.97 212.597 1166.1 205.036 1166.19 197.371C1166.13 189.835 1168 182.408 1171.62 175.8C1175.19 169.252 1180.42 163.753 1186.78 159.85C1193.56 155.736 1201.38 153.633 1209.31 153.785C1217.19 153.597 1224.95 155.686 1231.67 159.8C1237.94 163.747 1243.1 169.239 1246.64 175.751C1250.27 182.357 1252.14 189.784 1252.08 197.322C1252.17 204.988 1250.3 212.55 1246.64 219.287C1243.14 225.782 1237.97 231.229 1231.67 235.065Z" fill="#FB364E"/>
<path d="M1375.87 76.0805C1369.24 76.1159 1362.73 74.3704 1357.01 71.0267C1351.24 67.7046 1346.42 62.9494 1343.03 57.2212C1339.54 51.4109 1337.72 44.7471 1337.78 37.9676C1337.72 31.1959 1339.54 24.5402 1343.03 18.7386C1346.42 13.0105 1351.24 8.25525 1357.01 4.93313C1362.75 1.64697 1369.25 -0.0546467 1375.87 0.00262026C1380.88 -0.0564495 1385.85 0.883748 1390.49 2.76828C1395.14 4.65282 1399.36 7.4439 1402.91 10.9785C1406.47 14.513 1409.28 18.7202 1411.19 23.3542C1413.1 27.9882 1414.06 32.9561 1414.03 37.9676C1414.08 44.6282 1412.38 51.1856 1409.11 56.986C1405.83 62.7865 1401.1 67.6275 1395.37 71.0267C1389.45 74.4573 1382.71 76.2049 1375.87 76.0805ZM1344.78 100.56H1407.35V294.157H1344.78V100.56Z" fill="#FB364E"/>
<path fill-rule="evenodd" clip-rule="evenodd" d="M1489.34 286.194C1506.3 295.059 1525.21 299.534 1544.34 299.211C1565.33 299.227 1583.66 294.305 1599.34 284.444C1615.17 274.442 1627.79 260.111 1635.71 243.151L1587.49 219.041C1583.78 227.149 1577.68 233.928 1570.01 238.467C1562.01 243.199 1552.87 245.622 1543.58 245.468C1534.81 245.68 1526.14 243.534 1518.48 239.256C1511.4 235.147 1505.66 229.065 1501.97 221.753C1499.95 217.701 1498.48 213.425 1497.57 209.032H1636.84V191.923C1636.95 175.043 1633.02 158.382 1625.38 143.333C1617.83 128.394 1606.25 115.867 1591.95 107.167C1577.32 98.0952 1559.64 93.5427 1538.9 93.5098C1520.21 93.1104 1501.78 97.8885 1485.65 107.315C1470.64 116.234 1458.29 129 1449.88 144.294C1441.26 159.946 1436.85 177.56 1437.06 195.424C1436.63 214.507 1441.46 233.341 1451.03 249.856C1460.22 265.26 1473.48 277.833 1489.34 286.194ZM1568.21 161.403C1571.38 165.549 1573.45 170.436 1574.22 175.603H1500.02C1501.48 170.347 1504.01 165.448 1507.44 161.206C1510.99 156.928 1515.43 153.478 1520.46 151.098C1525.96 148.479 1531.99 147.155 1538.08 147.228C1544.2 147.086 1550.26 148.413 1555.76 151.098C1560.63 153.557 1564.88 157.079 1568.21 161.403Z" fill="#FB364E"/>
<path d="M1764.51 155.782C1756.29 155.429 1748.19 157.89 1741.56 162.759C1735.57 167.5 1731.06 173.843 1728.54 181.051C1725.75 189.043 1724.37 197.461 1724.47 205.926V294.157H1661.85V198.53C1661.6 180.557 1665.38 162.755 1672.92 146.439C1680.31 130.899 1692.15 117.907 1706.94 109.115C1722.31 99.7962 1741.5 95.1368 1764.51 95.1368C1787.83 95.1368 1807.14 99.7962 1822.44 109.115C1837.25 117.936 1849.14 130.915 1856.63 146.439C1864.32 162.715 1868.18 180.533 1867.92 198.53V294.157H1805.31V205.926C1805.41 197.442 1803.96 189.011 1801.02 181.051C1798.39 173.848 1793.82 167.515 1787.8 162.759C1781.05 157.859 1772.84 155.399 1764.51 155.782Z" fill="#FB364E"/>
<path d="M1951.08 289.104C1963.98 296.368 1980.42 300 2000.39 300C2007.53 299.896 2014.64 299.07 2021.61 297.535C2028.09 296.334 2034.37 294.243 2040.27 291.322V235.731C2035.01 238.547 2029.39 240.637 2023.56 241.943C2017.85 243.442 2011.98 244.27 2006.08 244.408C1996.48 244.408 1988.83 241.623 1983.13 236.051C1977.43 230.48 1974.58 222.64 1974.58 212.533V153.046H2040.42V100.561H1974.58V51.9705H1911.98V100.561H1877.94V153.046H1911.98V214.801C1911.77 230.016 1915.15 245.067 1921.84 258.732C1928.22 271.63 1938.43 282.239 1951.08 289.104Z" fill="#FB364E"/>
<path d="M0 140C0 120.67 15.67 105 35 105C54.33 105 70 120.67 70 140V160C70 179.33 54.33 195 35 195C15.67 195 0 179.33 0 160V140Z" fill="#FB364E"/>
<path d="M90 65C90 45.67 105.67 30 125 30C144.33 30 160 45.67 160 65V235C160 254.33 144.33 270 125 270C105.67 270 90 254.33 90 235V65Z" fill="#FB364E"/>
<path d="M180 35C180 15.67 195.67 3.11388e-10 215 3.11388e-10C234.33 3.11388e-10 250 15.67 250 35V265C250 284.33 234.33 300 215 300C195.67 300 180 284.33 180 265V35Z" fill="#FB364E"/>
<path d="M270 140C270 120.67 285.67 105 305 105C324.33 105 340 120.67 340 140V160C340 179.33 324.33 195 305 195C285.67 195 270 179.33 270 160V140Z" fill="#FB364E"/>
</svg>
